<svg width="124" height="127" viewBox="0 0 124 127" fill="none" xmlns="http://www.w3.org/2000/svg">
<path fill-rule="evenodd" clip-rule="evenodd" d="M40 37H10V67V97H40V127H70V97V67H40V37Z" fill="#306CDB"/>
<path fill-rule="evenodd" clip-rule="evenodd" d="M83 0H53V30V60H83V90H113V60V30H83V0Z" fill="#306CDB"/>
<path d="M84.2212 90.1853L112.552 107.235L88.8291 119.629L60.4986 102.579L84.2212 90.1853Z" fill="#56CCF2"/>
<path d="M35.2212 8.18529L63.5517 25.2351L39.8291 37.6293L11.4986 20.5795L35.2212 8.18529Z" fill="#7BFD90"/>
<path d="M83.1263 90.2408L113.026 72.7483L113.225 107.389L83.1263 90.2408Z" fill="#7BFD90"/>
<path d="M40.1142 37.2293L10.2141 19.7368L10.0152 54.3773L40.1142 37.2293Z" fill="#D9D9D9"/>
</svg>
